<svg width="170" height="65" viewBox="0 0 170 65" fill="none" xmlns="http://www.w3.org/2000/svg">
<g clip-path="url(#clip0_70_724)">
<path d="M0.937526 31.1132C1.27846 30.2082 2.08354 30.0344 3.27273 30.5667C30.3523 40.9674 58.4232 43.7263 87.4117 38.8556C106.737 35.6085 125.188 28.7322 142.806 18.2581C143.254 17.9902 143.941 17.5664 144.794 16.9993C145.647 16.4322 146.26 16.0208 146.635 15.7653C148.009 14.9178 149.24 15.0193 150.253 16.0822C151.302 17.1388 151.19 18.2752 149.995 19.5163C148.445 21.1253 146.411 23.0085 143.965 25.1535C136.338 31.6753 127.527 37.2402 117.562 41.8045C107.597 46.3687 97.6142 49.4718 87.6563 51.145C72.2769 53.729 57.2862 53.4349 42.6471 50.2688C28.0144 47.1402 14.4359 41.4839 1.9306 33.4124C1.25865 33.0244 0.875449 32.5494 0.793594 32.0622C0.743222 31.7624 0.803493 31.444 0.937526 31.1132Z" fill="#E40000"/>
<path d="M133.473 11.4646C133.589 11.0214 133.821 10.597 134.157 10.1166C136.345 8.0151 138.51 6.45679 140.696 5.47299C144.288 3.8291 147.851 2.69098 151.372 1.98366C152.349 1.70392 153.284 1.62395 154.201 1.6626C158.696 1.33121 161.514 1.62834 162.582 2.56638C163.088 3.09781 163.424 3.96622 163.625 5.16541L163.801 6.2147C164.393 9.73733 164.164 14.0145 163.083 19.0898C162.001 24.1651 160.025 28.4275 157.16 31.9144C156.75 32.4072 156.339 32.669 155.933 32.7371C155.749 32.7681 155.521 32.7678 155.318 32.6864C154.677 32.4857 154.435 31.9484 154.598 31.1118C156.782 21.7668 157.576 15.4297 157.003 12.0195C156.82 10.9327 156.497 10.1393 156.01 9.72025C154.812 8.68837 151.945 8.55354 147.409 9.31574C145.749 9.5946 143.777 10.0416 141.559 10.607C139.138 11.322 136.938 11.9998 134.924 12.6466C134.333 12.7458 133.909 12.7015 133.693 12.5451C133.477 12.3887 133.366 12.1763 133.445 11.9703C133.383 11.8266 133.394 11.6705 133.473 11.4646Z" fill="#E40000"/>
</g>
<defs>
<clipPath id="clip0_70_724">
<rect width="165" height="38" fill="white" transform="translate(0 27.3403) rotate(-9.5378)"/>
</clipPath>
</defs>
</svg>
