<svg width="24" height="18" viewBox="0 0 24 18" fill="none" xmlns="http://www.w3.org/2000/svg">
<path d="M23.6732 8.21076L16.5312 1.06876C16.0954 0.633005 15.3887 0.633005 14.953 1.06876C14.5171 1.5046 14.5171 2.21112 14.953 2.64696L20.1899 7.88393H1.11594C0.499673 7.88393 0 8.3836 0 8.99987C0 9.61604 0.499673 10.1158 1.11594 10.1158H20.1899L14.9531 15.3528C14.5173 15.7886 14.5173 16.4951 14.9531 16.931C15.171 17.1487 15.4566 17.2578 15.7422 17.2578C16.0278 17.2578 16.3134 17.1487 16.5313 16.931L23.6732 9.78897C24.109 9.35313 24.109 8.64661 23.6732 8.21076Z" fill="black" fill-opacity="0.6"/>
</svg>
